<?xml version="1.0" encoding="UTF-8" standalone="no"?>
<!DOCTYPE svg PUBLIC "-//W3C//DTD SVG 1.1//EN"
 "http://www.w3.org/Graphics/SVG/1.1/DTD/svg11.dtd">
<!-- Generated by graphviz version 2.42.3 (20191010.1750)
 -->
<!-- Title: G Pages: 1 -->
<svg width="2107pt" height="241pt"
 viewBox="0.00 0.00 2107.31 241.48" xmlns="http://www.w3.org/2000/svg" xmlns:xlink="http://www.w3.org/1999/xlink">
<g id="graph0" class="graph" transform="scale(1 1) rotate(0) translate(21.6 219.88)">
<title>G</title>
<polygon fill="#111111" stroke="transparent" points="-21.6,21.6 -21.6,-219.88 2085.71,-219.88 2085.71,21.6 -21.6,21.6"/>
<!-- ../application/commons/AppRequiredServices.ts -->
<g id="node1" class="node">
<title>../application/commons/AppRequiredServices.ts</title>
<path fill="none" stroke="#c6c5fe" d="M404.79,-146.9C404.79,-146.9 107.42,-146.9 107.42,-146.9 103.38,-146.9 99.35,-142.87 99.35,-138.83 99.35,-138.83 99.35,-130.77 99.35,-130.77 99.35,-126.73 103.38,-122.7 107.42,-122.7 107.42,-122.7 404.79,-122.7 404.79,-122.7 408.83,-122.7 412.86,-126.73 412.86,-130.77 412.86,-130.77 412.86,-138.83 412.86,-138.83 412.86,-142.87 408.83,-146.9 404.79,-146.9"/>
<text text-anchor="middle" x="256.11" y="-131.65" font-family="Arial" font-size="14.00" fill="#c6c5fe">../application/commons/AppRequiredServices.ts</text>
</g>
<!-- ../general/injector.ts -->
<g id="node2" class="node">
<title>../general/injector.ts</title>
<path fill="none" stroke="#cfffac" d="M2056.24,-81.9C2056.24,-81.9 1934.58,-81.9 1934.58,-81.9 1930.54,-81.9 1926.51,-77.87 1926.51,-73.83 1926.51,-73.83 1926.51,-65.77 1926.51,-65.77 1926.51,-61.73 1930.54,-57.7 1934.58,-57.7 1934.58,-57.7 2056.24,-57.7 2056.24,-57.7 2060.28,-57.7 2064.31,-61.73 2064.31,-65.77 2064.31,-65.77 2064.31,-73.83 2064.31,-73.83 2064.31,-77.87 2060.28,-81.9 2056.24,-81.9"/>
<text text-anchor="middle" x="1995.41" y="-66.65" font-family="Arial" font-size="14.00" fill="#cfffac">../general/injector.ts</text>
</g>
<!-- ../application/commons/AppRequiredServices.ts&#45;&gt;../general/injector.ts -->
<g id="edge1" class="edge">
<title>../application/commons/AppRequiredServices.ts&#45;&gt;../general/injector.ts</title>
<path fill="none" stroke="#757575" d="M301.63,-146.93C340.22,-156.87 397.72,-170.32 448.74,-176.8 676.48,-205.71 735.35,-195.8 964.91,-195.8 964.91,-195.8 964.91,-195.8 1339.91,-195.8 1571.95,-195.8 1842.07,-118.49 1948.22,-84.98"/>
<polygon fill="#757575" stroke="#757575" points="1949.51,-88.25 1957.98,-81.88 1947.39,-81.58 1949.51,-88.25"/>
</g>
<!-- ../general/services/account/AccountServiceImpl.ts -->
<g id="node3" class="node">
<title>../general/services/account/AccountServiceImpl.ts</title>
<path fill="none" stroke="#cfffac" d="M765.55,-167.9C765.55,-167.9 456.85,-167.9 456.85,-167.9 452.82,-167.9 448.79,-163.87 448.79,-159.83 448.79,-159.83 448.79,-151.77 448.79,-151.77 448.79,-147.73 452.82,-143.7 456.85,-143.7 456.85,-143.7 765.55,-143.7 765.55,-143.7 769.58,-143.7 773.62,-147.73 773.62,-151.77 773.62,-151.77 773.62,-159.83 773.62,-159.83 773.62,-163.87 769.58,-167.9 765.55,-167.9"/>
<text text-anchor="middle" x="611.2" y="-152.65" font-family="Arial" font-size="14.00" fill="#cfffac">../general/services/account/AccountServiceImpl.ts</text>
</g>
<!-- ../application/commons/AppRequiredServices.ts&#45;&gt;../general/services/account/AccountServiceImpl.ts -->
<g id="edge2" class="edge">
<title>../application/commons/AppRequiredServices.ts&#45;&gt;../general/services/account/AccountServiceImpl.ts</title>
<path fill="none" stroke="#757575" d="M412.75,-144.06C421.32,-144.57 429.96,-145.08 438.58,-145.59"/>
<polygon fill="#757575" stroke="#757575" points="438.5,-149.09 448.69,-146.19 438.92,-142.11 438.5,-149.09"/>
</g>
<!-- ../general/services/user/UserServiceImpl.ts -->
<g id="node4" class="node">
<title>../general/services/user/UserServiceImpl.ts</title>
<path fill="none" stroke="#cfffac" d="M744.22,-125.9C744.22,-125.9 478.18,-125.9 478.18,-125.9 474.15,-125.9 470.11,-121.87 470.11,-117.83 470.11,-117.83 470.11,-109.77 470.11,-109.77 470.11,-105.73 474.15,-101.7 478.18,-101.7 478.18,-101.7 744.22,-101.7 744.22,-101.7 748.26,-101.7 752.29,-105.73 752.29,-109.77 752.29,-109.77 752.29,-117.83 752.29,-117.83 752.29,-121.87 748.26,-125.9 744.22,-125.9"/>
<text text-anchor="middle" x="611.2" y="-110.65" font-family="Arial" font-size="14.00" fill="#cfffac">../general/services/user/UserServiceImpl.ts</text>
</g>
<!-- ../application/commons/AppRequiredServices.ts&#45;&gt;../general/services/user/UserServiceImpl.ts -->
<g id="edge3" class="edge">
<title>../application/commons/AppRequiredServices.ts&#45;&gt;../general/services/user/UserServiceImpl.ts</title>
<path fill="none" stroke="#757575" d="M412.75,-125.54C428.37,-124.61 444.21,-123.67 459.78,-122.75"/>
<polygon fill="#757575" stroke="#757575" points="460.19,-126.23 469.96,-122.14 459.77,-119.24 460.19,-126.23"/>
</g>
<!-- ../application/dashboard/services/MentionService.ts -->
<g id="node5" class="node">
<title>../application/dashboard/services/MentionService.ts</title>
<path fill="none" stroke="#c6c5fe" d="M1882.67,-81.9C1882.67,-81.9 1563.7,-81.9 1563.7,-81.9 1559.66,-81.9 1555.63,-77.87 1555.63,-73.83 1555.63,-73.83 1555.63,-65.77 1555.63,-65.77 1555.63,-61.73 1559.66,-57.7 1563.7,-57.7 1563.7,-57.7 1882.67,-57.7 1882.67,-57.7 1886.7,-57.7 1890.74,-61.73 1890.74,-65.77 1890.74,-65.77 1890.74,-73.83 1890.74,-73.83 1890.74,-77.87 1886.7,-81.9 1882.67,-81.9"/>
<text text-anchor="middle" x="1723.18" y="-66.65" font-family="Arial" font-size="14.00" fill="#c6c5fe">../application/dashboard/services/MentionService.ts</text>
</g>
<!-- ../application/dashboard/services/MentionService.ts&#45;&gt;../general/injector.ts -->
<g id="edge4" class="edge">
<title>../application/dashboard/services/MentionService.ts&#45;&gt;../general/injector.ts</title>
<path fill="none" stroke="#757575" d="M1891.09,-69.8C1899.77,-69.8 1908.27,-69.8 1916.42,-69.8"/>
<polygon fill="#757575" stroke="#757575" points="1916.56,-73.3 1926.56,-69.8 1916.56,-66.3 1916.56,-73.3"/>
</g>
<!-- ../application/dashboard/services/MentionServiceImpl.ts -->
<g id="node6" class="node">
<title>../application/dashboard/services/MentionServiceImpl.ts</title>
<path fill="none" stroke="#c6c5fe" d="M1511.34,-41.9C1511.34,-41.9 1166.47,-41.9 1166.47,-41.9 1162.44,-41.9 1158.4,-37.87 1158.4,-33.83 1158.4,-33.83 1158.4,-25.77 1158.4,-25.77 1158.4,-21.73 1162.44,-17.7 1166.47,-17.7 1166.47,-17.7 1511.34,-17.7 1511.34,-17.7 1515.37,-17.7 1519.41,-21.73 1519.41,-25.77 1519.41,-25.77 1519.41,-33.83 1519.41,-33.83 1519.41,-37.87 1515.37,-41.9 1511.34,-41.9"/>
<text text-anchor="middle" x="1338.91" y="-26.65" font-family="Arial" font-size="14.00" fill="#c6c5fe">../application/dashboard/services/MentionServiceImpl.ts</text>
</g>
<!-- ../application/dashboard/services/MentionServiceImpl.ts&#45;&gt;../application/dashboard/services/MentionService.ts -->
<g id="edge5" class="edge">
<title>../application/dashboard/services/MentionServiceImpl.ts&#45;&gt;../application/dashboard/services/MentionService.ts</title>
<path fill="none" stroke="#757575" d="M1455.12,-41.86C1499.87,-46.54 1551.25,-51.92 1596.92,-56.69"/>
<polygon fill="#757575" stroke="#757575" points="1596.57,-60.18 1606.88,-57.74 1597.29,-53.21 1596.57,-60.18"/>
</g>
<!-- ../lazy&#45;modules/board/BoardImpl.ts -->
<g id="node7" class="node">
<title>../lazy&#45;modules/board/BoardImpl.ts</title>
<path fill="none" stroke="#c6c5fe" d="M719.45,-83.9C719.45,-83.9 502.95,-83.9 502.95,-83.9 498.92,-83.9 494.88,-79.87 494.88,-75.83 494.88,-75.83 494.88,-67.77 494.88,-67.77 494.88,-63.73 498.92,-59.7 502.95,-59.7 502.95,-59.7 719.45,-59.7 719.45,-59.7 723.48,-59.7 727.52,-63.73 727.52,-67.77 727.52,-67.77 727.52,-75.83 727.52,-75.83 727.52,-79.87 723.48,-83.9 719.45,-83.9"/>
<text text-anchor="middle" x="611.2" y="-68.65" font-family="Arial" font-size="14.00" fill="#c6c5fe">../lazy&#45;modules/board/BoardImpl.ts</text>
</g>
<!-- ../lazy&#45;modules/board/BoardInjector.ts -->
<g id="node8" class="node">
<title>../lazy&#45;modules/board/BoardInjector.ts</title>
<path fill="none" stroke="#cfffac" d="M1083.35,-125.9C1083.35,-125.9 848.47,-125.9 848.47,-125.9 844.43,-125.9 840.4,-121.87 840.4,-117.83 840.4,-117.83 840.4,-109.77 840.4,-109.77 840.4,-105.73 844.43,-101.7 848.47,-101.7 848.47,-101.7 1083.35,-101.7 1083.35,-101.7 1087.38,-101.7 1091.41,-105.73 1091.41,-109.77 1091.41,-109.77 1091.41,-117.83 1091.41,-117.83 1091.41,-121.87 1087.38,-125.9 1083.35,-125.9"/>
<text text-anchor="middle" x="965.91" y="-110.65" font-family="Arial" font-size="14.00" fill="#cfffac">../lazy&#45;modules/board/BoardInjector.ts</text>
</g>
<!-- ../lazy&#45;modules/board/BoardImpl.ts&#45;&gt;../lazy&#45;modules/board/BoardInjector.ts -->
<g id="edge6" class="edge">
<title>../lazy&#45;modules/board/BoardImpl.ts&#45;&gt;../lazy&#45;modules/board/BoardInjector.ts</title>
<path fill="none" stroke="#757575" d="M713.75,-83.89C757.45,-89.1 808.68,-95.2 853.43,-100.53"/>
<polygon fill="#757575" stroke="#757575" points="853.13,-104.01 863.47,-101.72 853.95,-97.06 853.13,-104.01"/>
</g>
<!-- ../lazy&#45;modules/feed/FeedModule.ts -->
<g id="node9" class="node">
<title>../lazy&#45;modules/feed/FeedModule.ts</title>
<path fill="none" stroke="#c6c5fe" d="M1076.62,-83.9C1076.62,-83.9 855.19,-83.9 855.19,-83.9 851.16,-83.9 847.13,-79.87 847.13,-75.83 847.13,-75.83 847.13,-67.77 847.13,-67.77 847.13,-63.73 851.16,-59.7 855.19,-59.7 855.19,-59.7 1076.62,-59.7 1076.62,-59.7 1080.65,-59.7 1084.69,-63.73 1084.69,-67.77 1084.69,-67.77 1084.69,-75.83 1084.69,-75.83 1084.69,-79.87 1080.65,-83.9 1076.62,-83.9"/>
<text text-anchor="middle" x="965.91" y="-68.65" font-family="Arial" font-size="14.00" fill="#c6c5fe">../lazy&#45;modules/feed/FeedModule.ts</text>
</g>
<!-- ../lazy&#45;modules/board/BoardImpl.ts&#45;&gt;../lazy&#45;modules/feed/FeedModule.ts -->
<g id="edge7" class="edge">
<title>../lazy&#45;modules/board/BoardImpl.ts&#45;&gt;../lazy&#45;modules/feed/FeedModule.ts</title>
<path fill="none" stroke="#757575" d="M727.69,-71.8C762.52,-71.8 800.97,-71.8 836.59,-71.8"/>
<polygon fill="#757575" stroke="#757575" points="837.04,-75.3 847.04,-71.8 837.04,-68.3 837.04,-75.3"/>
</g>
<!-- ../lazy&#45;modules/feed/FeedImpl.ts -->
<g id="node14" class="node">
<title>../lazy&#45;modules/feed/FeedImpl.ts</title>
<path fill="none" stroke="#c6c5fe" d="M1440.15,-121.9C1440.15,-121.9 1237.66,-121.9 1237.66,-121.9 1233.63,-121.9 1229.6,-117.87 1229.6,-113.83 1229.6,-113.83 1229.6,-105.77 1229.6,-105.77 1229.6,-101.73 1233.63,-97.7 1237.66,-97.7 1237.66,-97.7 1440.15,-97.7 1440.15,-97.7 1444.18,-97.7 1448.22,-101.73 1448.22,-105.77 1448.22,-105.77 1448.22,-113.83 1448.22,-113.83 1448.22,-117.87 1444.18,-121.9 1440.15,-121.9"/>
<text text-anchor="middle" x="1338.91" y="-106.65" font-family="Arial" font-size="14.00" fill="#c6c5fe">../lazy&#45;modules/feed/FeedImpl.ts</text>
</g>
<!-- ../lazy&#45;modules/feed/FeedModule.ts&#45;&gt;../lazy&#45;modules/feed/FeedImpl.ts -->
<g id="edge16" class="edge">
<title>../lazy&#45;modules/feed/FeedModule.ts&#45;&gt;../lazy&#45;modules/feed/FeedImpl.ts</title>
<path fill="none" stroke="#757575" d="M1084.55,-83.85C1127.67,-88.27 1176.46,-93.26 1219.64,-97.69"/>
<polygon fill="#757575" stroke="#757575" points="1219.31,-101.17 1229.62,-98.71 1220.03,-94.21 1219.31,-101.17"/>
</g>
<!-- ../lazy&#45;modules/board/BoardModule.ts -->
<g id="node10" class="node">
<title>../lazy&#45;modules/board/BoardModule.ts</title>
<path fill="none" stroke="#c6c5fe" d="M373.83,-83.9C373.83,-83.9 138.39,-83.9 138.39,-83.9 134.35,-83.9 130.32,-79.87 130.32,-75.83 130.32,-75.83 130.32,-67.77 130.32,-67.77 130.32,-63.73 134.35,-59.7 138.39,-59.7 138.39,-59.7 373.83,-59.7 373.83,-59.7 377.86,-59.7 381.89,-63.73 381.89,-67.77 381.89,-67.77 381.89,-75.83 381.89,-75.83 381.89,-79.87 377.86,-83.9 373.83,-83.9"/>
<text text-anchor="middle" x="256.11" y="-68.65" font-family="Arial" font-size="14.00" fill="#c6c5fe">../lazy&#45;modules/board/BoardModule.ts</text>
</g>
<!-- ../lazy&#45;modules/board/BoardModule.ts&#45;&gt;../lazy&#45;modules/board/BoardImpl.ts -->
<g id="edge8" class="edge">
<title>../lazy&#45;modules/board/BoardModule.ts&#45;&gt;../lazy&#45;modules/board/BoardImpl.ts</title>
<path fill="none" stroke="#757575" d="M382.09,-71.8C415.35,-71.8 451.29,-71.8 484.58,-71.8"/>
<polygon fill="#757575" stroke="#757575" points="484.83,-75.3 494.83,-71.8 484.83,-68.3 484.83,-75.3"/>
</g>
<!-- ../lazy&#45;modules/dashboard/DashboardImpl.ts -->
<g id="node11" class="node">
<title>../lazy&#45;modules/dashboard/DashboardImpl.ts</title>
<path fill="none" stroke="#c6c5fe" d="M749.94,-41.9C749.94,-41.9 472.46,-41.9 472.46,-41.9 468.43,-41.9 464.4,-37.87 464.4,-33.83 464.4,-33.83 464.4,-25.77 464.4,-25.77 464.4,-21.73 468.43,-17.7 472.46,-17.7 472.46,-17.7 749.94,-17.7 749.94,-17.7 753.97,-17.7 758.01,-21.73 758.01,-25.77 758.01,-25.77 758.01,-33.83 758.01,-33.83 758.01,-37.87 753.97,-41.9 749.94,-41.9"/>
<text text-anchor="middle" x="611.2" y="-26.65" font-family="Arial" font-size="14.00" fill="#c6c5fe">../lazy&#45;modules/dashboard/DashboardImpl.ts</text>
</g>
<!-- ../lazy&#45;modules/dashboard/DashboardImpl.ts&#45;&gt;../lazy&#45;modules/feed/FeedModule.ts -->
<g id="edge10" class="edge">
<title>../lazy&#45;modules/dashboard/DashboardImpl.ts&#45;&gt;../lazy&#45;modules/feed/FeedModule.ts</title>
<path fill="none" stroke="#757575" d="M713.75,-41.89C757.45,-47.1 808.68,-53.2 853.43,-58.53"/>
<polygon fill="#757575" stroke="#757575" points="853.13,-62.01 863.47,-59.72 853.95,-55.06 853.13,-62.01"/>
</g>
<!-- ../lazy&#45;modules/dashboard/DashboardInjector.ts -->
<g id="node12" class="node">
<title>../lazy&#45;modules/dashboard/DashboardInjector.ts</title>
<path fill="none" stroke="#c6c5fe" d="M1114.34,-41.9C1114.34,-41.9 817.48,-41.9 817.48,-41.9 813.44,-41.9 809.41,-37.87 809.41,-33.83 809.41,-33.83 809.41,-25.77 809.41,-25.77 809.41,-21.73 813.44,-17.7 817.48,-17.7 817.48,-17.7 1114.34,-17.7 1114.34,-17.7 1118.37,-17.7 1122.4,-21.73 1122.4,-25.77 1122.4,-25.77 1122.4,-33.83 1122.4,-33.83 1122.4,-37.87 1118.37,-41.9 1114.34,-41.9"/>
<text text-anchor="middle" x="965.91" y="-26.65" font-family="Arial" font-size="14.00" fill="#c6c5fe">../lazy&#45;modules/dashboard/DashboardInjector.ts</text>
</g>
<!-- ../lazy&#45;modules/dashboard/DashboardImpl.ts&#45;&gt;../lazy&#45;modules/dashboard/DashboardInjector.ts -->
<g id="edge9" class="edge">
<title>../lazy&#45;modules/dashboard/DashboardImpl.ts&#45;&gt;../lazy&#45;modules/dashboard/DashboardInjector.ts</title>
<path fill="none" stroke="#757575" d="M758.21,-29.8C771.85,-29.8 785.75,-29.8 799.56,-29.8"/>
<polygon fill="#757575" stroke="#757575" points="799.6,-33.3 809.6,-29.8 799.6,-26.3 799.6,-33.3"/>
</g>
<!-- ../lazy&#45;modules/dashboard/DashboardInjector.ts&#45;&gt;../general/injector.ts -->
<g id="edge13" class="edge">
<title>../lazy&#45;modules/dashboard/DashboardInjector.ts&#45;&gt;../general/injector.ts</title>
<path fill="none" stroke="#757575" d="M1058.18,-17.72C1089.78,-14.09 1125.47,-10.59 1158.15,-8.8 1483.73,9.02 1568.48,1.09 1890.71,-48.8 1903.31,-50.75 1916.71,-53.19 1929.54,-55.71"/>
<polygon fill="#757575" stroke="#757575" points="1929.19,-59.21 1939.69,-57.73 1930.57,-52.34 1929.19,-59.21"/>
</g>
<!-- ../lazy&#45;modules/dashboard/DashboardInjector.ts&#45;&gt;../application/dashboard/services/MentionService.ts -->
<g id="edge11" class="edge">
<title>../lazy&#45;modules/dashboard/DashboardInjector.ts&#45;&gt;../application/dashboard/services/MentionService.ts</title>
<path fill="none" stroke="#757575" d="M1063.58,-41.85C1093.82,-45.24 1127.34,-48.59 1158.15,-50.8 1287.51,-60.07 1433.89,-64.83 1545.11,-67.27"/>
<polygon fill="#757575" stroke="#757575" points="1545.35,-70.78 1555.42,-67.49 1545.5,-63.78 1545.35,-70.78"/>
</g>
<!-- ../lazy&#45;modules/dashboard/DashboardInjector.ts&#45;&gt;../application/dashboard/services/MentionServiceImpl.ts -->
<g id="edge12" class="edge">
<title>../lazy&#45;modules/dashboard/DashboardInjector.ts&#45;&gt;../application/dashboard/services/MentionServiceImpl.ts</title>
<path fill="none" stroke="#757575" d="M1122.36,-29.8C1130.92,-29.8 1139.56,-29.8 1148.22,-29.8"/>
<polygon fill="#757575" stroke="#757575" points="1148.39,-33.3 1158.39,-29.8 1148.39,-26.3 1148.39,-33.3"/>
</g>
<!-- ../lazy&#45;modules/dashboard/DashboardModule.ts -->
<g id="node13" class="node">
<title>../lazy&#45;modules/dashboard/DashboardModule.ts</title>
<path fill="none" stroke="#c6c5fe" d="M404.81,-41.9C404.81,-41.9 107.4,-41.9 107.4,-41.9 103.36,-41.9 99.33,-37.87 99.33,-33.83 99.33,-33.83 99.33,-25.77 99.33,-25.77 99.33,-21.73 103.36,-17.7 107.4,-17.7 107.4,-17.7 404.81,-17.7 404.81,-17.7 408.85,-17.7 412.88,-21.73 412.88,-25.77 412.88,-25.77 412.88,-33.83 412.88,-33.83 412.88,-37.87 408.85,-41.9 404.81,-41.9"/>
<text text-anchor="middle" x="256.11" y="-26.65" font-family="Arial" font-size="14.00" fill="#c6c5fe">../lazy&#45;modules/dashboard/DashboardModule.ts</text>
</g>
<!-- ../lazy&#45;modules/dashboard/DashboardModule.ts&#45;&gt;../lazy&#45;modules/dashboard/DashboardImpl.ts -->
<g id="edge14" class="edge">
<title>../lazy&#45;modules/dashboard/DashboardModule.ts&#45;&gt;../lazy&#45;modules/dashboard/DashboardImpl.ts</title>
<path fill="none" stroke="#757575" d="M412.75,-29.8C426.38,-29.8 440.17,-29.8 453.81,-29.8"/>
<polygon fill="#757575" stroke="#757575" points="454.2,-33.3 464.2,-29.8 454.2,-26.3 454.2,-33.3"/>
</g>
<!-- ../lazy&#45;modules/feed/FeedImpl.ts&#45;&gt;../application/dashboard/services/MentionService.ts -->
<g id="edge15" class="edge">
<title>../lazy&#45;modules/feed/FeedImpl.ts&#45;&gt;../application/dashboard/services/MentionService.ts</title>
<path fill="none" stroke="#757575" d="M1448.17,-98.47C1494.44,-93.63 1548.75,-87.95 1596.76,-82.92"/>
<polygon fill="#757575" stroke="#757575" points="1597.32,-86.39 1606.9,-81.86 1596.59,-79.42 1597.32,-86.39"/>
</g>
<!-- inline.ts -->
<g id="node15" class="node">
<title>inline.ts</title>
<path fill="none" stroke="#c6c5fe" d="M55.64,-83.9C55.64,-83.9 7.83,-83.9 7.83,-83.9 3.8,-83.9 -0.24,-79.87 -0.24,-75.83 -0.24,-75.83 -0.24,-67.77 -0.24,-67.77 -0.24,-63.73 3.8,-59.7 7.83,-59.7 7.83,-59.7 55.64,-59.7 55.64,-59.7 59.67,-59.7 63.7,-63.73 63.7,-67.77 63.7,-67.77 63.7,-75.83 63.7,-75.83 63.7,-79.87 59.67,-83.9 55.64,-83.9"/>
<text text-anchor="middle" x="31.73" y="-68.65" font-family="Arial" font-size="14.00" fill="#c6c5fe">inline.ts</text>
</g>
<!-- inline.ts&#45;&gt;../application/commons/AppRequiredServices.ts -->
<g id="edge17" class="edge">
<title>inline.ts&#45;&gt;../application/commons/AppRequiredServices.ts</title>
<path fill="none" stroke="#757575" d="M63.55,-81.79C74.82,-85.37 87.69,-89.36 99.47,-92.8 132.17,-102.35 168.97,-112.32 198.57,-120.14"/>
<polygon fill="#757575" stroke="#757575" points="197.75,-123.55 208.31,-122.71 199.54,-116.78 197.75,-123.55"/>
</g>
<!-- inline.ts&#45;&gt;../lazy&#45;modules/board/BoardModule.ts -->
<g id="edge18" class="edge">
<title>inline.ts&#45;&gt;../lazy&#45;modules/board/BoardModule.ts</title>
<path fill="none" stroke="#757575" d="M63.65,-71.8C79.11,-71.8 98.99,-71.8 120.07,-71.8"/>
<polygon fill="#757575" stroke="#757575" points="120.17,-75.3 130.17,-71.8 120.17,-68.3 120.17,-75.3"/>
</g>
<!-- inline.ts&#45;&gt;../lazy&#45;modules/dashboard/DashboardModule.ts -->
<g id="edge19" class="edge">
<title>inline.ts&#45;&gt;../lazy&#45;modules/dashboard/DashboardModule.ts</title>
<path fill="none" stroke="#757575" d="M63.67,-60.86C74.84,-57.23 87.61,-53.45 99.47,-50.8 111.77,-48.06 124.7,-45.62 137.63,-43.47"/>
<polygon fill="#757575" stroke="#757575" points="138.2,-46.92 147.51,-41.88 137.09,-40.01 138.2,-46.92"/>
</g>
</g>
</svg>
